<mxfile host="app.diagrams.net" modified="2024-04-04T04:05:09.413Z" agent="Mozilla/5.0 (Windows NT 10.0; Win64; x64) AppleWebKit/537.36 (KHTML, like Gecko) Chrome/123.0.0.0 Safari/537.36" etag="cGXTDKYw-xB21KmK-pDM" version="24.2.2" type="device">
  <diagram name="Страница — 1" id="jSyaf2gWkMloRoqnEfU9">
    <mxGraphModel dx="1434" dy="746" grid="1" gridSize="10" guides="1" tooltips="1" connect="1" arrows="1" fold="1" page="1" pageScale="1" pageWidth="827" pageHeight="1169" math="0" shadow="0">
      <root>
        <mxCell id="0" />
        <mxCell id="1" parent="0" />
        <mxCell id="KoTcC4kIUeLryEpa0cRl-1" value="" style="swimlane;startSize=0;" vertex="1" parent="1">
          <mxGeometry x="40" y="40" width="1000" height="600" as="geometry" />
        </mxCell>
        <mxCell id="KoTcC4kIUeLryEpa0cRl-4" value="" style="rounded=0;whiteSpace=wrap;html=1;" vertex="1" parent="KoTcC4kIUeLryEpa0cRl-1">
          <mxGeometry width="200" height="120" as="geometry" />
        </mxCell>
        <mxCell id="KoTcC4kIUeLryEpa0cRl-5" value="" style="endArrow=none;html=1;rounded=0;entryX=0;entryY=0;entryDx=0;entryDy=0;exitX=1;exitY=1;exitDx=0;exitDy=0;" edge="1" parent="KoTcC4kIUeLryEpa0cRl-1" source="KoTcC4kIUeLryEpa0cRl-4" target="KoTcC4kIUeLryEpa0cRl-4">
          <mxGeometry width="50" height="50" relative="1" as="geometry">
            <mxPoint x="130" y="210" as="sourcePoint" />
            <mxPoint x="180" y="160" as="targetPoint" />
          </mxGeometry>
        </mxCell>
        <mxCell id="KoTcC4kIUeLryEpa0cRl-6" value="Должность" style="text;html=1;align=center;verticalAlign=middle;whiteSpace=wrap;rounded=0;" vertex="1" parent="KoTcC4kIUeLryEpa0cRl-1">
          <mxGeometry x="110" y="20" width="60" height="30" as="geometry" />
        </mxCell>
        <mxCell id="KoTcC4kIUeLryEpa0cRl-7" value="Работа" style="text;html=1;align=center;verticalAlign=middle;whiteSpace=wrap;rounded=0;" vertex="1" parent="KoTcC4kIUeLryEpa0cRl-1">
          <mxGeometry x="20" y="70" width="60" height="30" as="geometry" />
        </mxCell>
        <mxCell id="KoTcC4kIUeLryEpa0cRl-8" value="" style="rounded=0;whiteSpace=wrap;html=1;" vertex="1" parent="KoTcC4kIUeLryEpa0cRl-1">
          <mxGeometry y="120" width="200" height="120" as="geometry" />
        </mxCell>
        <mxCell id="KoTcC4kIUeLryEpa0cRl-9" value="" style="rounded=0;whiteSpace=wrap;html=1;" vertex="1" parent="KoTcC4kIUeLryEpa0cRl-1">
          <mxGeometry y="240" width="200" height="120" as="geometry" />
        </mxCell>
        <mxCell id="KoTcC4kIUeLryEpa0cRl-10" value="" style="rounded=0;whiteSpace=wrap;html=1;" vertex="1" parent="KoTcC4kIUeLryEpa0cRl-1">
          <mxGeometry y="360" width="200" height="120" as="geometry" />
        </mxCell>
        <mxCell id="KoTcC4kIUeLryEpa0cRl-11" value="" style="rounded=0;whiteSpace=wrap;html=1;" vertex="1" parent="KoTcC4kIUeLryEpa0cRl-1">
          <mxGeometry y="480" width="200" height="120" as="geometry" />
        </mxCell>
        <mxCell id="KoTcC4kIUeLryEpa0cRl-12" value="" style="rounded=0;whiteSpace=wrap;html=1;" vertex="1" parent="KoTcC4kIUeLryEpa0cRl-1">
          <mxGeometry x="200" width="200" height="120" as="geometry" />
        </mxCell>
        <mxCell id="KoTcC4kIUeLryEpa0cRl-13" value="" style="rounded=0;whiteSpace=wrap;html=1;" vertex="1" parent="KoTcC4kIUeLryEpa0cRl-1">
          <mxGeometry x="400" width="200" height="120" as="geometry" />
        </mxCell>
        <mxCell id="KoTcC4kIUeLryEpa0cRl-14" value="" style="rounded=0;whiteSpace=wrap;html=1;" vertex="1" parent="KoTcC4kIUeLryEpa0cRl-1">
          <mxGeometry x="600" width="200" height="120" as="geometry" />
        </mxCell>
        <mxCell id="KoTcC4kIUeLryEpa0cRl-16" value="" style="rounded=0;whiteSpace=wrap;html=1;" vertex="1" parent="KoTcC4kIUeLryEpa0cRl-1">
          <mxGeometry x="200" y="120" width="200" height="120" as="geometry" />
        </mxCell>
        <mxCell id="KoTcC4kIUeLryEpa0cRl-17" value="" style="rounded=0;whiteSpace=wrap;html=1;" vertex="1" parent="KoTcC4kIUeLryEpa0cRl-1">
          <mxGeometry x="200" y="240" width="200" height="120" as="geometry" />
        </mxCell>
        <mxCell id="KoTcC4kIUeLryEpa0cRl-18" value="" style="rounded=0;whiteSpace=wrap;html=1;" vertex="1" parent="KoTcC4kIUeLryEpa0cRl-1">
          <mxGeometry x="200" y="360" width="200" height="120" as="geometry" />
        </mxCell>
        <mxCell id="KoTcC4kIUeLryEpa0cRl-19" value="" style="rounded=0;whiteSpace=wrap;html=1;" vertex="1" parent="KoTcC4kIUeLryEpa0cRl-1">
          <mxGeometry x="200" y="480" width="200" height="120" as="geometry" />
        </mxCell>
        <mxCell id="KoTcC4kIUeLryEpa0cRl-20" value="" style="rounded=0;whiteSpace=wrap;html=1;" vertex="1" parent="KoTcC4kIUeLryEpa0cRl-1">
          <mxGeometry x="400" y="120" width="200" height="120" as="geometry" />
        </mxCell>
        <mxCell id="KoTcC4kIUeLryEpa0cRl-21" value="" style="rounded=0;whiteSpace=wrap;html=1;" vertex="1" parent="KoTcC4kIUeLryEpa0cRl-1">
          <mxGeometry x="400" y="240" width="200" height="120" as="geometry" />
        </mxCell>
        <mxCell id="KoTcC4kIUeLryEpa0cRl-22" value="" style="rounded=0;whiteSpace=wrap;html=1;" vertex="1" parent="KoTcC4kIUeLryEpa0cRl-1">
          <mxGeometry x="400" y="360" width="200" height="120" as="geometry" />
        </mxCell>
        <mxCell id="KoTcC4kIUeLryEpa0cRl-23" value="" style="rounded=0;whiteSpace=wrap;html=1;" vertex="1" parent="KoTcC4kIUeLryEpa0cRl-1">
          <mxGeometry x="400" y="480" width="200" height="120" as="geometry" />
        </mxCell>
        <mxCell id="KoTcC4kIUeLryEpa0cRl-24" value="" style="rounded=0;whiteSpace=wrap;html=1;" vertex="1" parent="KoTcC4kIUeLryEpa0cRl-1">
          <mxGeometry x="600" y="120" width="200" height="120" as="geometry" />
        </mxCell>
        <mxCell id="KoTcC4kIUeLryEpa0cRl-25" value="" style="rounded=0;whiteSpace=wrap;html=1;" vertex="1" parent="KoTcC4kIUeLryEpa0cRl-1">
          <mxGeometry x="600" y="240" width="200" height="120" as="geometry" />
        </mxCell>
        <mxCell id="KoTcC4kIUeLryEpa0cRl-26" value="" style="rounded=0;whiteSpace=wrap;html=1;" vertex="1" parent="KoTcC4kIUeLryEpa0cRl-1">
          <mxGeometry x="600" y="360" width="200" height="120" as="geometry" />
        </mxCell>
        <mxCell id="KoTcC4kIUeLryEpa0cRl-27" value="" style="rounded=0;whiteSpace=wrap;html=1;" vertex="1" parent="KoTcC4kIUeLryEpa0cRl-1">
          <mxGeometry x="600" y="480" width="200" height="120" as="geometry" />
        </mxCell>
        <mxCell id="KoTcC4kIUeLryEpa0cRl-28" value="" style="rounded=0;whiteSpace=wrap;html=1;" vertex="1" parent="KoTcC4kIUeLryEpa0cRl-1">
          <mxGeometry x="800" y="120" width="200" height="120" as="geometry" />
        </mxCell>
        <mxCell id="KoTcC4kIUeLryEpa0cRl-29" value="" style="rounded=0;whiteSpace=wrap;html=1;" vertex="1" parent="KoTcC4kIUeLryEpa0cRl-1">
          <mxGeometry x="800" y="240" width="200" height="120" as="geometry" />
        </mxCell>
        <mxCell id="KoTcC4kIUeLryEpa0cRl-30" value="" style="rounded=0;whiteSpace=wrap;html=1;" vertex="1" parent="KoTcC4kIUeLryEpa0cRl-1">
          <mxGeometry x="800" y="360" width="200" height="120" as="geometry" />
        </mxCell>
        <mxCell id="KoTcC4kIUeLryEpa0cRl-31" value="" style="rounded=0;whiteSpace=wrap;html=1;" vertex="1" parent="KoTcC4kIUeLryEpa0cRl-1">
          <mxGeometry x="800" y="480" width="200" height="120" as="geometry" />
        </mxCell>
        <mxCell id="KoTcC4kIUeLryEpa0cRl-32" value="" style="shape=document;whiteSpace=wrap;html=1;boundedLbl=1;" vertex="1" parent="KoTcC4kIUeLryEpa0cRl-1">
          <mxGeometry x="240" y="140" width="120" height="80" as="geometry" />
        </mxCell>
        <mxCell id="KoTcC4kIUeLryEpa0cRl-33" value="Пользователь&lt;span style=&quot;color: rgba(0, 0, 0, 0); font-family: monospace; font-size: 0px; text-align: start; text-wrap: nowrap;&quot;&gt;%3CmxGraphModel%3E%3Croot%3E%3CmxCell%20id%3D%220%22%2F%3E%3CmxCell%20id%3D%221%22%20parent%3D%220%22%2F%3E%3CmxCell%20id%3D%222%22%20value%3D%22%22%20style%3D%22rounded%3D0%3BwhiteSpace%3Dwrap%3Bhtml%3D1%3B%22%20vertex%3D%221%22%20parent%3D%221%22%3E%3CmxGeometry%20x%3D%22440%22%20y%3D%22160%22%20width%3D%22200%22%20height%3D%22120%22%20as%3D%22geometry%22%2F%3E%3C%2FmxCell%3E%3C%2Froot%3E%3C%2FmxGraphModel%3E&lt;/span&gt;" style="text;html=1;align=center;verticalAlign=middle;whiteSpace=wrap;rounded=0;" vertex="1" parent="KoTcC4kIUeLryEpa0cRl-1">
          <mxGeometry x="270" y="45" width="60" height="30" as="geometry" />
        </mxCell>
        <mxCell id="KoTcC4kIUeLryEpa0cRl-34" value="Администратор&lt;span style=&quot;color: rgba(0, 0, 0, 0); font-family: monospace; font-size: 0px; text-align: start; text-wrap: nowrap;&quot;&gt;%3CmxGraphModel%3E%3Croot%3E%3CmxCell%20id%3D%220%22%2F%3E%3CmxCell%20id%3D%221%22%20parent%3D%220%22%2F%3E%3CmxCell%20id%3D%222%22%20value%3D%22%D0%9F%D0%BE%D0%BB%D1%8C%D0%B7%D0%BE%D0%B2%D0%B0%D1%82%D0%B5%D0%BB%D1%8C%26lt%3Bspan%20style%3D%26quot%3Bcolor%3A%20rgba(0%2C%200%2C%200%2C%200)%3B%20font-family%3A%20monospace%3B%20font-size%3A%200px%3B%20text-align%3A%20start%3B%20text-wrap%3A%20nowrap%3B%26quot%3B%26gt%3B%253CmxGraphModel%253E%253Croot%253E%253CmxCell%2520id%253D%25220%2522%252F%253E%253CmxCell%2520id%253D%25221%2522%2520parent%253D%25220%2522%252F%253E%253CmxCell%2520id%253D%25222%2522%2520value%253D%2522%2522%2520style%253D%2522rounded%253D0%253BwhiteSpace%253Dwrap%253Bhtml%253D1%253B%2522%2520vertex%253D%25221%2522%2520parent%253D%25221%2522%253E%253CmxGeometry%2520x%253D%2522440%2522%2520y%253D%2522160%2522%2520width%253D%2522200%2522%2520height%253D%2522120%2522%2520as%253D%2522geometry%2522%252F%253E%253C%252FmxCell%253E%253C%252Froot%253E%253C%252FmxGraphModel%253E%26lt%3B%2Fspan%26gt%3B%22%20style%3D%22text%3Bhtml%3D1%3Balign%3Dcenter%3BverticalAlign%3Dmiddle%3BwhiteSpace%3Dwrap%3Brounded%3D0%3B%22%20vertex%3D%221%22%20parent%3D%221%22%3E%3CmxGeometry%20x%3D%22300%22%20y%3D%2290%22%20width%3D%2260%22%20height%3D%2230%22%20as%3D%22geometry%22%2F%3E%3C%2FmxCell%3E%3C%2Froot%3E%3C%2FmxGraphModel%3E&lt;/span&gt;" style="text;html=1;align=center;verticalAlign=middle;whiteSpace=wrap;rounded=0;" vertex="1" parent="KoTcC4kIUeLryEpa0cRl-1">
          <mxGeometry x="470" y="45" width="60" height="30" as="geometry" />
        </mxCell>
        <mxCell id="KoTcC4kIUeLryEpa0cRl-35" value="Бухгалтер&lt;span style=&quot;color: rgba(0, 0, 0, 0); font-family: monospace; font-size: 0px; text-align: start; text-wrap: nowrap;&quot;&gt;%3CmxGraphModel%3E%3Croot%3E%3CmxCell%20id%3D%220%22%2F%3E%3CmxCell%20id%3D%221%22%20parent%3D%220%22%2F%3E%3CmxCell%20id%3D%222%22%20value%3D%22%D0%9F%D0%BE%D0%BB%D1%8C%D0%B7%D0%BE%D0%B2%D0%B0%D1%82%D0%B5%D0%BB%D1%8C%26lt%3Bspan%20style%3D%26quot%3Bcolor%3A%20rgba(0%2C%200%2C%200%2C%200)%3B%20font-family%3A%20monospace%3B%20font-size%3A%200px%3B%20text-align%3A%20start%3B%20text-wrap%3A%20nowrap%3B%26quot%3B%26gt%3B%253CmxGraphModel%253E%253Croot%253E%253CmxCell%2520id%253D%25220%2522%252F%253E%253CmxCell%2520id%253D%25221%2522%2520parent%253D%25220%2522%252F%253E%253CmxCell%2520id%253D%25222%2522%2520value%253D%2522%2522%2520style%253D%2522rounded%253D0%253BwhiteSpace%253Dwrap%253Bhtml%253D1%253B%2522%2520vertex%253D%25221%2522%2520parent%253D%25221%2522%253E%253CmxGeometry%2520x%253D%2522440%2522%2520y%253D%2522160%2522%2520width%253D%2522200%2522%2520height%253D%2522120%2522%2520as%253D%2522geometry%2522%252F%253E%253C%252FmxCell%253E%253C%252Froot%253E%253C%252FmxGraphModel%253E%26lt%3B%2Fspan%26gt%3B%22%20style%3D%22text%3Bhtml%3D1%3Balign%3Dcenter%3BverticalAlign%3Dmiddle%3BwhiteSpace%3Dwrap%3Brounded%3D0%3B%22%20vertex%3D%221%22%20parent%3D%221%22%3E%3CmxGeometry%20x%3D%22300%22%20y%3D%2290%22%20width%3D%2260%22%20height%3D%2230%22%20as%3D%22geometry%22%2F%3E%3C%2FmxCell%3E%3C%2Froot%3E%3C%2FmxGraphModel%3E&lt;/span&gt;" style="text;html=1;align=center;verticalAlign=middle;whiteSpace=wrap;rounded=0;" vertex="1" parent="KoTcC4kIUeLryEpa0cRl-1">
          <mxGeometry x="670" y="45" width="60" height="30" as="geometry" />
        </mxCell>
        <mxCell id="KoTcC4kIUeLryEpa0cRl-37" value="Отправка заявок,редактирование заявок" style="text;html=1;align=center;verticalAlign=middle;whiteSpace=wrap;rounded=0;" vertex="1" parent="KoTcC4kIUeLryEpa0cRl-1">
          <mxGeometry x="40" y="150" width="120" height="60" as="geometry" />
        </mxCell>
        <mxCell id="KoTcC4kIUeLryEpa0cRl-38" value="Обработка заявок" style="text;html=1;align=center;verticalAlign=middle;whiteSpace=wrap;rounded=0;" vertex="1" parent="KoTcC4kIUeLryEpa0cRl-1">
          <mxGeometry x="40" y="270" width="120" height="60" as="geometry" />
        </mxCell>
        <mxCell id="KoTcC4kIUeLryEpa0cRl-39" value="Изменение, добавление, редактирование типов поддерживаемых услуг" style="text;html=1;align=center;verticalAlign=middle;whiteSpace=wrap;rounded=0;" vertex="1" parent="KoTcC4kIUeLryEpa0cRl-1">
          <mxGeometry x="40" y="390" width="120" height="60" as="geometry" />
        </mxCell>
        <mxCell id="KoTcC4kIUeLryEpa0cRl-40" value="Вывод отчетов" style="text;html=1;align=center;verticalAlign=middle;whiteSpace=wrap;rounded=0;" vertex="1" parent="KoTcC4kIUeLryEpa0cRl-1">
          <mxGeometry x="40" y="510" width="120" height="60" as="geometry" />
        </mxCell>
        <mxCell id="KoTcC4kIUeLryEpa0cRl-41" value="" style="shape=document;whiteSpace=wrap;html=1;boundedLbl=1;" vertex="1" parent="KoTcC4kIUeLryEpa0cRl-1">
          <mxGeometry x="440" y="270" width="120" height="80" as="geometry" />
        </mxCell>
        <mxCell id="KoTcC4kIUeLryEpa0cRl-42" value="" style="shape=document;whiteSpace=wrap;html=1;boundedLbl=1;" vertex="1" parent="KoTcC4kIUeLryEpa0cRl-1">
          <mxGeometry x="440" y="390" width="120" height="80" as="geometry" />
        </mxCell>
        <mxCell id="KoTcC4kIUeLryEpa0cRl-43" value="" style="shape=document;whiteSpace=wrap;html=1;boundedLbl=1;fillColor=none;" vertex="1" parent="KoTcC4kIUeLryEpa0cRl-1">
          <mxGeometry x="667" y="510" width="120" height="80" as="geometry" />
        </mxCell>
        <mxCell id="KoTcC4kIUeLryEpa0cRl-44" value="" style="shape=cylinder3;whiteSpace=wrap;html=1;boundedLbl=1;backgroundOutline=1;size=15;" vertex="1" parent="KoTcC4kIUeLryEpa0cRl-1">
          <mxGeometry x="870" y="500" width="60" height="80" as="geometry" />
        </mxCell>
        <mxCell id="KoTcC4kIUeLryEpa0cRl-45" value="" style="endArrow=none;html=1;rounded=0;exitX=0.992;exitY=0.425;exitDx=0;exitDy=0;exitPerimeter=0;" edge="1" parent="KoTcC4kIUeLryEpa0cRl-1" source="KoTcC4kIUeLryEpa0cRl-32">
          <mxGeometry width="50" height="50" relative="1" as="geometry">
            <mxPoint x="-30" y="120" as="sourcePoint" />
            <mxPoint x="929" y="174" as="targetPoint" />
          </mxGeometry>
        </mxCell>
        <mxCell id="KoTcC4kIUeLryEpa0cRl-46" value="" style="endArrow=none;html=1;rounded=0;" edge="1" parent="KoTcC4kIUeLryEpa0cRl-1" target="KoTcC4kIUeLryEpa0cRl-28">
          <mxGeometry width="50" height="50" relative="1" as="geometry">
            <mxPoint x="800" y="170" as="sourcePoint" />
            <mxPoint x="850" y="120" as="targetPoint" />
          </mxGeometry>
        </mxCell>
        <mxCell id="KoTcC4kIUeLryEpa0cRl-50" value="" style="endArrow=classic;html=1;rounded=0;entryX=1;entryY=0;entryDx=0;entryDy=15;entryPerimeter=0;" edge="1" parent="KoTcC4kIUeLryEpa0cRl-1" target="KoTcC4kIUeLryEpa0cRl-44">
          <mxGeometry width="50" height="50" relative="1" as="geometry">
            <mxPoint x="930" y="170" as="sourcePoint" />
            <mxPoint x="960" y="130" as="targetPoint" />
          </mxGeometry>
        </mxCell>
        <mxCell id="KoTcC4kIUeLryEpa0cRl-51" value="" style="endArrow=none;html=1;rounded=0;entryX=1;entryY=0.25;entryDx=0;entryDy=0;" edge="1" parent="KoTcC4kIUeLryEpa0cRl-1" target="KoTcC4kIUeLryEpa0cRl-41">
          <mxGeometry width="50" height="50" relative="1" as="geometry">
            <mxPoint x="900" y="290" as="sourcePoint" />
            <mxPoint x="564" y="300" as="targetPoint" />
          </mxGeometry>
        </mxCell>
        <mxCell id="KoTcC4kIUeLryEpa0cRl-52" value="" style="endArrow=classic;html=1;rounded=0;entryX=0.5;entryY=0;entryDx=0;entryDy=0;entryPerimeter=0;" edge="1" parent="KoTcC4kIUeLryEpa0cRl-1" target="KoTcC4kIUeLryEpa0cRl-44">
          <mxGeometry width="50" height="50" relative="1" as="geometry">
            <mxPoint x="900" y="290" as="sourcePoint" />
            <mxPoint x="950" y="240" as="targetPoint" />
          </mxGeometry>
        </mxCell>
        <mxCell id="KoTcC4kIUeLryEpa0cRl-53" value="" style="endArrow=none;html=1;rounded=0;entryX=1;entryY=0.413;entryDx=0;entryDy=0;entryPerimeter=0;" edge="1" parent="KoTcC4kIUeLryEpa0cRl-1" target="KoTcC4kIUeLryEpa0cRl-42">
          <mxGeometry width="50" height="50" relative="1" as="geometry">
            <mxPoint x="871" y="423" as="sourcePoint" />
            <mxPoint x="560" y="410" as="targetPoint" />
          </mxGeometry>
        </mxCell>
        <mxCell id="KoTcC4kIUeLryEpa0cRl-54" value="" style="endArrow=classic;html=1;rounded=0;entryX=0;entryY=0;entryDx=0;entryDy=15;entryPerimeter=0;" edge="1" parent="KoTcC4kIUeLryEpa0cRl-1" target="KoTcC4kIUeLryEpa0cRl-44">
          <mxGeometry width="50" height="50" relative="1" as="geometry">
            <mxPoint x="870" y="420" as="sourcePoint" />
            <mxPoint x="920" y="370" as="targetPoint" />
          </mxGeometry>
        </mxCell>
        <mxCell id="KoTcC4kIUeLryEpa0cRl-55" value="" style="shape=document;whiteSpace=wrap;html=1;boundedLbl=1;fillColor=none;" vertex="1" parent="KoTcC4kIUeLryEpa0cRl-1">
          <mxGeometry x="660" y="500" width="120" height="80" as="geometry" />
        </mxCell>
        <mxCell id="KoTcC4kIUeLryEpa0cRl-56" value="" style="shape=document;whiteSpace=wrap;html=1;boundedLbl=1;fillColor=none;" vertex="1" parent="KoTcC4kIUeLryEpa0cRl-1">
          <mxGeometry x="640" y="490" width="120" height="80" as="geometry" />
        </mxCell>
        <mxCell id="KoTcC4kIUeLryEpa0cRl-57" value="" style="endArrow=classic;html=1;rounded=0;exitX=0;exitY=0;exitDx=0;exitDy=52.5;exitPerimeter=0;entryX=1;entryY=0.5;entryDx=0;entryDy=0;" edge="1" parent="KoTcC4kIUeLryEpa0cRl-1" source="KoTcC4kIUeLryEpa0cRl-44" target="KoTcC4kIUeLryEpa0cRl-43">
          <mxGeometry width="50" height="50" relative="1" as="geometry">
            <mxPoint x="820" y="570" as="sourcePoint" />
            <mxPoint x="870" y="520" as="targetPoint" />
          </mxGeometry>
        </mxCell>
        <mxCell id="KoTcC4kIUeLryEpa0cRl-15" value="" style="rounded=0;whiteSpace=wrap;html=1;" vertex="1" parent="1">
          <mxGeometry x="840" y="40" width="200" height="120" as="geometry" />
        </mxCell>
        <mxCell id="KoTcC4kIUeLryEpa0cRl-36" value="Сервер" style="text;html=1;align=center;verticalAlign=middle;whiteSpace=wrap;rounded=0;" vertex="1" parent="1">
          <mxGeometry x="910" y="85" width="60" height="30" as="geometry" />
        </mxCell>
      </root>
    </mxGraphModel>
  </diagram>
</mxfile>
